<mxfile host="65bd71144e" modified="2020-11-10T08:01:00.679Z" agent="5.0 (Macintosh; Intel Mac OS X 10_15_4) AppleWebKit/537.36 (KHTML, like Gecko) Code/1.50.1 Chrome/83.0.4103.122 Electron/9.2.1 Safari/537.36" etag="UeZ-fbsXP1Q-Cc3cVVn6" version="13.6.5">
    <diagram id="0LwSYv0bxkQmUXbSV6q0" name="第 1 页">
        <mxGraphModel dx="745" dy="687" grid="1" gridSize="10" guides="1" tooltips="1" connect="1" arrows="1" fold="1" page="1" pageScale="1" pageWidth="827" pageHeight="1169" math="0" shadow="0">
            <root>
                <mxCell id="0"/>
                <mxCell id="1" parent="0"/>
                <mxCell id="53" value="" style="rounded=1;whiteSpace=wrap;html=1;" vertex="1" parent="1">
                    <mxGeometry x="200" y="480" width="310" height="320" as="geometry"/>
                </mxCell>
                <mxCell id="36" value="&lt;span&gt;代码区、只读&lt;br&gt;生命周期为程序启动到程序停止&lt;/span&gt;" style="text;html=1;align=left;verticalAlign=middle;resizable=0;points=[];autosize=1;fillColor=#f8cecc;strokeColor=#b85450;" parent="1" vertex="1">
                    <mxGeometry x="234" y="500" width="180" height="30" as="geometry"/>
                </mxCell>
                <mxCell id="2" value="112" style="rounded=0;whiteSpace=wrap;html=1;" parent="1" vertex="1">
                    <mxGeometry x="35" y="150" width="115" height="30" as="geometry"/>
                </mxCell>
                <mxCell id="4" value="-1" style="rounded=0;whiteSpace=wrap;html=1;" parent="1" vertex="1">
                    <mxGeometry x="150" y="150" width="120" height="30" as="geometry"/>
                </mxCell>
                <mxCell id="5" value="0x7ffeee2ef4e4" style="rounded=0;whiteSpace=wrap;html=1;" parent="1" vertex="1">
                    <mxGeometry x="270" y="150" width="120" height="30" as="geometry"/>
                </mxCell>
                <mxCell id="6" value="116" style="rounded=0;whiteSpace=wrap;html=1;" parent="1" vertex="1">
                    <mxGeometry x="390" y="150" width="120" height="30" as="geometry"/>
                </mxCell>
                <mxCell id="7" value="116" style="text;html=1;align=center;verticalAlign=middle;resizable=0;points=[];autosize=1;" parent="1" vertex="1">
                    <mxGeometry x="70" y="130" width="30" height="20" as="geometry"/>
                </mxCell>
                <mxCell id="8" value="112" style="text;html=1;align=center;verticalAlign=middle;resizable=0;points=[];autosize=1;" parent="1" vertex="1">
                    <mxGeometry x="195" y="130" width="30" height="20" as="geometry"/>
                </mxCell>
                <mxCell id="9" value="108" style="text;html=1;align=center;verticalAlign=middle;resizable=0;points=[];autosize=1;" parent="1" vertex="1">
                    <mxGeometry x="320" y="130" width="40" height="20" as="geometry"/>
                </mxCell>
                <mxCell id="10" value="104" style="text;html=1;align=center;verticalAlign=middle;resizable=0;points=[];autosize=1;" parent="1" vertex="1">
                    <mxGeometry x="420" y="130" width="40" height="20" as="geometry"/>
                </mxCell>
                <mxCell id="11" value="100" style="text;html=1;align=center;verticalAlign=middle;resizable=0;points=[];autosize=1;" parent="1" vertex="1">
                    <mxGeometry x="550" y="130" width="40" height="20" as="geometry"/>
                </mxCell>
                <mxCell id="12" value="108" style="rounded=0;whiteSpace=wrap;html=1;" parent="1" vertex="1">
                    <mxGeometry x="510" y="150" width="120" height="30" as="geometry"/>
                </mxCell>
                <mxCell id="13" value="" style="endArrow=classic;html=1;" parent="1" edge="1">
                    <mxGeometry width="50" height="50" relative="1" as="geometry">
                        <mxPoint x="339.5" y="200" as="sourcePoint"/>
                        <mxPoint x="339.5" y="250" as="targetPoint"/>
                    </mxGeometry>
                </mxCell>
                <mxCell id="14" value="112" style="rounded=0;whiteSpace=wrap;html=1;" parent="1" vertex="1">
                    <mxGeometry x="35" y="280" width="115" height="30" as="geometry"/>
                </mxCell>
                <mxCell id="15" value="-1" style="rounded=0;whiteSpace=wrap;html=1;" parent="1" vertex="1">
                    <mxGeometry x="150" y="280" width="120" height="30" as="geometry"/>
                </mxCell>
                <mxCell id="16" value="0x7ffeee2ef4e4" style="rounded=0;whiteSpace=wrap;html=1;" parent="1" vertex="1">
                    <mxGeometry x="270" y="280" width="120" height="30" as="geometry"/>
                </mxCell>
                <mxCell id="17" value="116" style="rounded=0;whiteSpace=wrap;html=1;" parent="1" vertex="1">
                    <mxGeometry x="390" y="280" width="120" height="30" as="geometry"/>
                </mxCell>
                <mxCell id="18" value="a" style="text;html=1;align=center;verticalAlign=middle;resizable=0;points=[];autosize=1;" parent="1" vertex="1">
                    <mxGeometry x="75" y="260" width="20" height="20" as="geometry"/>
                </mxCell>
                <mxCell id="19" value="b" style="text;html=1;align=center;verticalAlign=middle;resizable=0;points=[];autosize=1;" parent="1" vertex="1">
                    <mxGeometry x="200" y="260" width="20" height="20" as="geometry"/>
                </mxCell>
                <mxCell id="20" value="c" style="text;html=1;align=center;verticalAlign=middle;resizable=0;points=[];autosize=1;" parent="1" vertex="1">
                    <mxGeometry x="330" y="260" width="20" height="20" as="geometry"/>
                </mxCell>
                <mxCell id="21" value="d" style="text;html=1;align=center;verticalAlign=middle;resizable=0;points=[];autosize=1;" parent="1" vertex="1">
                    <mxGeometry x="430" y="260" width="20" height="20" as="geometry"/>
                </mxCell>
                <mxCell id="22" value="e" style="text;html=1;align=center;verticalAlign=middle;resizable=0;points=[];autosize=1;" parent="1" vertex="1">
                    <mxGeometry x="560" y="260" width="20" height="20" as="geometry"/>
                </mxCell>
                <mxCell id="23" value="108" style="rounded=0;whiteSpace=wrap;html=1;" parent="1" vertex="1">
                    <mxGeometry x="510" y="280" width="120" height="30" as="geometry"/>
                </mxCell>
                <mxCell id="28" value="" style="endArrow=none;dashed=1;html=1;dashPattern=1 3;strokeWidth=2;" parent="1" source="18" edge="1">
                    <mxGeometry width="50" height="50" relative="1" as="geometry">
                        <mxPoint x="310" y="290" as="sourcePoint"/>
                        <mxPoint x="440" y="258" as="targetPoint"/>
                        <Array as="points">
                            <mxPoint x="130" y="250"/>
                        </Array>
                    </mxGeometry>
                </mxCell>
                <mxCell id="29" value="" style="endArrow=none;dashed=1;html=1;dashPattern=1 3;strokeWidth=2;" parent="1" edge="1">
                    <mxGeometry width="50" height="50" relative="1" as="geometry">
                        <mxPoint x="350" y="270" as="sourcePoint"/>
                        <mxPoint x="570" y="250" as="targetPoint"/>
                        <Array as="points">
                            <mxPoint x="430" y="230"/>
                        </Array>
                    </mxGeometry>
                </mxCell>
                <mxCell id="30" value="地址" style="text;html=1;align=center;verticalAlign=middle;resizable=0;points=[];autosize=1;" parent="1" vertex="1">
                    <mxGeometry x="600" y="110" width="40" height="20" as="geometry"/>
                </mxCell>
                <mxCell id="31" value="变量名" style="text;html=1;align=center;verticalAlign=middle;resizable=0;points=[];autosize=1;" parent="1" vertex="1">
                    <mxGeometry x="585" y="240" width="50" height="20" as="geometry"/>
                </mxCell>
                <mxCell id="33" value="&lt;pre class=&quot;lang-c s-code-block hljs&quot; style=&quot;margin-top: 0px ; padding: 12px ; border: 0px ; font-stretch: inherit ; line-height: 1.30769 ; font-family: &amp;#34;consolas&amp;#34; , &amp;#34;menlo&amp;#34; , &amp;#34;monaco&amp;#34; , &amp;#34;lucida console&amp;#34; , &amp;#34;liberation mono&amp;#34; , &amp;#34;dejavu sans mono&amp;#34; , &amp;#34;bitstream vera sans mono&amp;#34; , &amp;#34;courier new&amp;#34; , monospace , sans-serif ; font-size: 13px ; vertical-align: baseline ; box-sizing: inherit ; width: auto ; max-height: 600px ; overflow: auto ; border-radius: 5px ; overflow-wrap: normal ; text-align: left&quot;&gt;&lt;code style=&quot;margin: 0px ; padding: 0px ; border: 0px ; font-style: inherit ; font-variant: inherit ; font-weight: inherit ; font-stretch: inherit ; line-height: inherit ; font-family: inherit ; vertical-align: baseline ; box-sizing: inherit ; background-color: transparent&quot;&gt;&lt;span class=&quot;hljs-keyword&quot; style=&quot;margin: 0px ; padding: 0px ; border: 0px ; font-style: inherit ; font-variant: inherit ; font-weight: inherit ; font-stretch: inherit ; line-height: inherit ; font-family: inherit ; vertical-align: baseline ; box-sizing: inherit&quot;&gt;char&lt;/span&gt; *s =&lt;span class=&quot;hljs-string&quot; style=&quot;margin: 0px ; padding: 0px ; border: 0px ; font-style: inherit ; font-variant: inherit ; font-weight: inherit ; font-stretch: inherit ; line-height: inherit ; font-family: inherit ; vertical-align: baseline ; box-sizing: inherit&quot;&gt;&quot;hello&quot;&lt;/span&gt;;&lt;/code&gt;&lt;/pre&gt;" style="text;html=1;align=center;verticalAlign=middle;resizable=0;points=[];autosize=1;" parent="1" vertex="1">
                    <mxGeometry x="500" y="435" width="170" height="60" as="geometry"/>
                </mxCell>
                <mxCell id="34" value="&lt;pre class=&quot;lang-c s-code-block hljs&quot; style=&quot;margin-top: 0px ; padding: 12px ; border: 0px ; font-stretch: inherit ; line-height: 1.30769 ; font-family: &amp;#34;consolas&amp;#34; , &amp;#34;menlo&amp;#34; , &amp;#34;monaco&amp;#34; , &amp;#34;lucida console&amp;#34; , &amp;#34;liberation mono&amp;#34; , &amp;#34;dejavu sans mono&amp;#34; , &amp;#34;bitstream vera sans mono&amp;#34; , &amp;#34;courier new&amp;#34; , monospace , sans-serif ; font-size: 13px ; vertical-align: baseline ; box-sizing: inherit ; width: auto ; max-height: 600px ; overflow: auto ; border-radius: 5px ; overflow-wrap: normal ; text-align: left&quot;&gt;&lt;code style=&quot;margin: 0px ; padding: 0px ; border: 0px ; font-style: inherit ; font-variant: inherit ; font-weight: inherit ; font-stretch: inherit ; line-height: inherit ; font-family: inherit ; vertical-align: baseline ; box-sizing: inherit ; background-color: transparent&quot;&gt;&lt;span class=&quot;hljs-keyword&quot; style=&quot;margin: 0px ; padding: 0px ; border: 0px ; font-style: inherit ; font-variant: inherit ; font-weight: inherit ; font-stretch: inherit ; line-height: inherit ; font-family: inherit ; vertical-align: baseline ; box-sizing: inherit&quot;&gt;char&lt;/span&gt; s[] = &lt;span class=&quot;hljs-string&quot; style=&quot;margin: 0px ; padding: 0px ; border: 0px ; font-style: inherit ; font-variant: inherit ; font-weight: inherit ; font-stretch: inherit ; line-height: inherit ; font-family: inherit ; vertical-align: baseline ; box-sizing: inherit&quot;&gt;&quot;hello&quot;&lt;/span&gt;;&lt;br/&gt;&lt;/code&gt;&lt;/pre&gt;&lt;div&gt;&lt;code style=&quot;margin: 0px ; padding: 0px ; border: 0px ; font-style: inherit ; font-variant: inherit ; font-weight: inherit ; font-stretch: inherit ; line-height: inherit ; font-family: inherit ; vertical-align: baseline ; box-sizing: inherit ; background-color: transparent&quot;&gt;&lt;br&gt;&lt;/code&gt;&lt;/div&gt;" style="text;html=1;align=center;verticalAlign=middle;resizable=0;points=[];autosize=1;" parent="1" vertex="1">
                    <mxGeometry x="25" y="430" width="190" height="70" as="geometry"/>
                </mxCell>
                <mxCell id="37" value="&lt;font color=&quot;#1a1a1a&quot;&gt;0xff00: &lt;/font&gt;&lt;font color=&quot;#ff3b76&quot;&gt;h&lt;/font&gt;ello" style="text;html=1;align=center;verticalAlign=middle;resizable=0;points=[];autosize=1;" parent="1" vertex="1">
                    <mxGeometry x="270" y="550" width="80" height="20" as="geometry"/>
                </mxCell>
                <mxCell id="42" value="s: 0xffa0" style="rounded=1;whiteSpace=wrap;html=1;" parent="1" vertex="1">
                    <mxGeometry x="560" y="559" width="50" height="50" as="geometry"/>
                </mxCell>
                <mxCell id="44" value="&lt;span&gt;[h, e, l, l, o, \0]&lt;/span&gt;" style="ellipse;whiteSpace=wrap;html=1;" parent="1" vertex="1">
                    <mxGeometry x="220" y="710" width="170" height="80" as="geometry"/>
                </mxCell>
                <mxCell id="45" value="可读区" style="text;html=1;align=center;verticalAlign=middle;resizable=0;points=[];autosize=1;" parent="1" vertex="1">
                    <mxGeometry x="234" y="660" width="50" height="20" as="geometry"/>
                </mxCell>
                <mxCell id="47" value="s: 0xff11" style="rounded=1;whiteSpace=wrap;html=1;" parent="1" vertex="1">
                    <mxGeometry x="95" y="520" width="50" height="50" as="geometry"/>
                </mxCell>
                <mxCell id="49" value="" style="endArrow=classic;html=1;entryX=0.018;entryY=0.313;entryDx=0;entryDy=0;entryPerimeter=0;exitX=0.5;exitY=1;exitDx=0;exitDy=0;" parent="1" source="47" target="44" edge="1">
                    <mxGeometry width="50" height="50" relative="1" as="geometry">
                        <mxPoint x="110" y="650" as="sourcePoint"/>
                        <mxPoint x="160" y="600" as="targetPoint"/>
                    </mxGeometry>
                </mxCell>
                <mxCell id="50" value="1. 不能修改指向&lt;br&gt;2. 可以修改值" style="text;html=1;align=center;verticalAlign=middle;resizable=0;points=[];autosize=1;fillColor=#fff2cc;strokeColor=#d6b656;" parent="1" vertex="1">
                    <mxGeometry x="60" y="650" width="100" height="30" as="geometry"/>
                </mxCell>
                <mxCell id="51" value="1. 不能修改值&lt;br&gt;2. 可以修改指向&lt;br&gt;3. 指向第一个字符h&lt;br&gt;" style="text;html=1;align=center;verticalAlign=middle;resizable=0;points=[];autosize=1;fillColor=#fff2cc;strokeColor=#d6b656;" parent="1" vertex="1">
                    <mxGeometry x="560" y="680" width="120" height="50" as="geometry"/>
                </mxCell>
                <mxCell id="54" value="内存" style="text;html=1;align=center;verticalAlign=middle;resizable=0;points=[];autosize=1;" vertex="1" parent="1">
                    <mxGeometry x="330" y="455" width="40" height="20" as="geometry"/>
                </mxCell>
                <mxCell id="56" value="0xffa0: 0xff00" style="rounded=0;whiteSpace=wrap;html=1;" vertex="1" parent="1">
                    <mxGeometry x="397.5" y="680" width="85" height="30" as="geometry"/>
                </mxCell>
                <mxCell id="57" value="" style="endArrow=classic;html=1;exitX=0;exitY=0.5;exitDx=0;exitDy=0;" edge="1" parent="1" source="56">
                    <mxGeometry width="50" height="50" relative="1" as="geometry">
                        <mxPoint x="270" y="620" as="sourcePoint"/>
                        <mxPoint x="320" y="570" as="targetPoint"/>
                    </mxGeometry>
                </mxCell>
                <mxCell id="59" value="" style="endArrow=classic;html=1;entryX=1;entryY=0.75;entryDx=0;entryDy=0;exitX=0.5;exitY=1;exitDx=0;exitDy=0;" edge="1" parent="1" source="42" target="56">
                    <mxGeometry width="50" height="50" relative="1" as="geometry">
                        <mxPoint x="270" y="620" as="sourcePoint"/>
                        <mxPoint x="320" y="570" as="targetPoint"/>
                    </mxGeometry>
                </mxCell>
                <mxCell id="61" value="" style="endArrow=none;html=1;entryX=1;entryY=0.5;entryDx=0;entryDy=0;exitX=0;exitY=0.5;exitDx=0;exitDy=0;" edge="1" parent="1" source="53" target="53">
                    <mxGeometry width="50" height="50" relative="1" as="geometry">
                        <mxPoint x="340" y="620" as="sourcePoint"/>
                        <mxPoint x="390" y="570" as="targetPoint"/>
                    </mxGeometry>
                </mxCell>
            </root>
        </mxGraphModel>
    </diagram>
</mxfile>